HIERARCHY
ROOT Hips
{
	OFFSET 1.077585 0.144225 1.746933
	CHANNELS 6 Xposition Yposition Zposition Zrotation Yrotation Xrotation 
	JOINT Spine
	{
		OFFSET 0.000023 8.340380 -2.713976
		CHANNELS 3 Zrotation Yrotation Xrotation
		JOINT Spine1
		{
			OFFSET -0.000016 11.909977 -2.100049
			CHANNELS 3 Zrotation Yrotation Xrotation
			JOINT Spine2
			{
				OFFSET -0.000026 12.047739 -1.054070
				CHANNELS 3 Zrotation Yrotation Xrotation
				JOINT Spine3
				{
					OFFSET -0.000014 12.093770 -0.000012
					CHANNELS 3 Zrotation Yrotation Xrotation
					JOINT Neck
					{
						OFFSET 0.000072 15.549103 1.554837
						CHANNELS 3 Zrotation Yrotation Xrotation
						JOINT Neck1
						{
							OFFSET 0.000035 4.687378 0.410074
							CHANNELS 3 Zrotation Yrotation Xrotation
							JOINT Head
							{
								OFFSET -0.000018 4.633836 0.817032
								CHANNELS 3 Zrotation Yrotation Xrotation
								JOINT HeadEnd
								{
									OFFSET -0.000016 9.727688 -0.000062
									CHANNELS 3 Zrotation Yrotation Xrotation
									End Site
									{
										OFFSET 0.000000 0.000000 0.000000
									}
								}
							}
						}
					}
					JOINT RightShoulder
					{
						OFFSET -0.000015 11.106393 6.072614
						CHANNELS 3 Zrotation Yrotation Xrotation
						JOINT RightArm
						{
							OFFSET -19.427909 0.000024 0.000038
							CHANNELS 3 Zrotation Yrotation Xrotation
							JOINT RightForeArm
							{
								OFFSET -29.350712 0.000013 -0.000066
								CHANNELS 3 Zrotation Yrotation Xrotation
								JOINT RightHand
								{
									OFFSET -27.018011 -0.000015 -0.000011
									CHANNELS 3 Zrotation Yrotation Xrotation
									JOINT RightHandMiddle1
									{
										OFFSET -9.244032 0.000004 -0.000001
										CHANNELS 3 Zrotation Yrotation Xrotation
										JOINT RightHandMiddle2
										{
											OFFSET -4.870026 -0.000021 0.000016
											CHANNELS 3 Zrotation Yrotation Xrotation
											JOINT RightHandMiddle3
											{
												OFFSET -3.169056 0.000007 0.000016
												CHANNELS 3 Zrotation Yrotation Xrotation
												JOINT RightHandMiddle4
												{
													OFFSET -1.888352 -0.000000 -0.000027
													CHANNELS 3 Zrotation Yrotation Xrotation
													End Site
													{
														OFFSET 0.000000 0.000000 0.000000
													}
												}
											}
										}
									}
									JOINT RightHandRing
									{
										OFFSET -0.250022 -0.249974 -0.956492
										CHANNELS 3 Zrotation Yrotation Xrotation
										JOINT RightHandRing1
										{
											OFFSET -8.140185 -0.000002 -0.734574
											CHANNELS 3 Zrotation Yrotation Xrotation
											JOINT RightHandRing2
											{
												OFFSET -4.501555 0.000038 -0.406270
												CHANNELS 3 Zrotation Yrotation Xrotation
												JOINT RightHandRing3
												{
													OFFSET -3.068873 0.000005 -0.276953
													CHANNELS 3 Zrotation Yrotation Xrotation
													JOINT RightHandRing4
													{
														OFFSET -1.869921 0.000024 -0.168742
														CHANNELS 3 Zrotation Yrotation Xrotation
														End Site
														{
															OFFSET 0.000000 0.000000 0.000000
														}
													}
												}
											}
										}
										JOINT RightHandPinky
										{
											OFFSET -0.163015 -0.250022 -0.975109
											CHANNELS 3 Zrotation Yrotation Xrotation
											JOINT RightHandPinky1
											{
												OFFSET -6.681493 0.000014 -1.494089
												CHANNELS 3 Zrotation Yrotation Xrotation
												JOINT RightHandPinky2
												{
													OFFSET -3.580935 0.000007 -0.800761
													CHANNELS 3 Zrotation Yrotation Xrotation
													JOINT RightHandPinky3
													{
														OFFSET -2.276495 0.000018 -0.509074
														CHANNELS 3 Zrotation Yrotation Xrotation
														JOINT RightHandPinky4
														{
															OFFSET -1.690348 0.000041 -0.377979
															CHANNELS 3 Zrotation Yrotation Xrotation
															End Site
															{
																OFFSET 0.000000 0.000000 0.000000
															}
														}
													}
												}
											}
										}
									}
									JOINT RightHandIndex
									{
										OFFSET -0.250052 -0.250030 0.956513
										CHANNELS 3 Zrotation Yrotation Xrotation
										JOINT RightHandIndex1
										{
											OFFSET -8.934112 0.000004 0.806256
											CHANNELS 3 Zrotation Yrotation Xrotation
											JOINT RightHandIndex2
											{
												OFFSET -4.694705 0.000031 0.423695
												CHANNELS 3 Zrotation Yrotation Xrotation
												JOINT RightHandIndex3
												{
													OFFSET -2.811744 -0.000017 0.253751
													CHANNELS 3 Zrotation Yrotation Xrotation
													JOINT RightHandIndex4
													{
														OFFSET -1.709978 -0.000013 0.154334
														CHANNELS 3 Zrotation Yrotation Xrotation
														End Site
														{
															OFFSET 0.000000 0.000000 0.000000
														}
													}
												}
											}
										}
										JOINT RightHandThumb1
										{
											OFFSET -0.163034 -0.750026 0.975080
											CHANNELS 3 Zrotation Yrotation Xrotation
											JOINT RightHandThumb2
											{
												OFFSET -5.411685 0.835503 2.244719
												CHANNELS 3 Zrotation Yrotation Xrotation
												JOINT RightHandThumb3
												{
													OFFSET -3.567191 0.550761 1.479613
													CHANNELS 3 Zrotation Yrotation Xrotation
													JOINT RightHandThumb4
													{
														OFFSET -2.150558 0.332007 0.892010
														CHANNELS 3 Zrotation Yrotation Xrotation
														End Site
														{
															OFFSET 0.000000 0.000000 0.000000
														}
													}
												}
											}
										}
									}
								}
							}
						}
					}
					JOINT LeftShoulder
					{
						OFFSET -0.000025 11.106418 6.072580
						CHANNELS 3 Zrotation Yrotation Xrotation
						JOINT LeftArm
						{
							OFFSET 19.427847 -0.000080 -0.000081
							CHANNELS 3 Zrotation Yrotation Xrotation
							JOINT LeftForeArm
							{
								OFFSET 29.350746 -0.000008 0.000077
								CHANNELS 3 Zrotation Yrotation Xrotation
								JOINT LeftHand
								{
									OFFSET 27.018132 0.000008 -0.000029
									CHANNELS 3 Zrotation Yrotation Xrotation
									JOINT LeftHandMiddle1
									{
										OFFSET 9.402695 -0.000016 -0.000005
										CHANNELS 3 Zrotation Yrotation Xrotation
										JOINT LeftHandMiddle2
										{
											OFFSET 4.950081 0.000014 0.000019
											CHANNELS 3 Zrotation Yrotation Xrotation
											JOINT LeftHandMiddle3
											{
												OFFSET 3.211968 -0.000001 -0.000009
												CHANNELS 3 Zrotation Yrotation Xrotation
												JOINT LeftHandMiddle4
												{
													OFFSET 1.927583 0.000010 -0.000082
													CHANNELS 3 Zrotation Yrotation Xrotation
													End Site
													{
														OFFSET 0.000000 0.000000 0.000000
													}
												}
											}
										}
									}
									JOINT LeftHandRing
									{
										OFFSET 0.249993 -0.249996 -0.906117
										CHANNELS 3 Zrotation Yrotation Xrotation
										JOINT LeftHandRing1
										{
											OFFSET 8.286045 0.000037 -0.747769
											CHANNELS 3 Zrotation Yrotation Xrotation
											JOINT LeftHandRing2
											{
												OFFSET 4.585463 -0.000015 -0.413799
												CHANNELS 3 Zrotation Yrotation Xrotation
												JOINT LeftHandRing3
												{
													OFFSET 3.124418 0.000013 -0.281970
													CHANNELS 3 Zrotation Yrotation Xrotation
													JOINT LeftHandRing4
													{
														OFFSET 1.908788 -0.000033 -0.172258
														CHANNELS 3 Zrotation Yrotation Xrotation
														End Site
														{
															OFFSET 0.000000 0.000000 0.000000
														}
													}
												}
											}
										}
										JOINT LeftHandPinky
										{
											OFFSET 0.167555 -0.250011 -0.924977
											CHANNELS 3 Zrotation Yrotation Xrotation
											JOINT LeftHandPinky1
											{
												OFFSET 6.823484 0.000004 -1.525888
												CHANNELS 3 Zrotation Yrotation Xrotation
												JOINT LeftHandPinky2
												{
													OFFSET 3.642852 -0.000009 -0.814610
													CHANNELS 3 Zrotation Yrotation Xrotation
													JOINT LeftHandPinky3
													{
														OFFSET 2.333117 -0.000019 -0.521745
														CHANNELS 3 Zrotation Yrotation Xrotation
														JOINT LeftHandPinky4
														{
															OFFSET 1.725439 -0.000009 -0.385851
															CHANNELS 3 Zrotation Yrotation Xrotation
															End Site
															{
																OFFSET 0.000000 0.000000 0.000000
															}
														}
													}
												}
											}
										}
									}
									JOINT LeftHandIndex
									{
										OFFSET 0.250018 -0.249999 0.906187
										CHANNELS 3 Zrotation Yrotation Xrotation
										JOINT LeftHandIndex1
										{
											OFFSET 9.088012 0.000007 0.820122
											CHANNELS 3 Zrotation Yrotation Xrotation
											JOINT LeftHandIndex2
											{
												OFFSET 4.776551 0.000008 0.431091
												CHANNELS 3 Zrotation Yrotation Xrotation
												JOINT LeftHandIndex3
												{
													OFFSET 2.865141 -0.000001 0.258581
													CHANNELS 3 Zrotation Yrotation Xrotation
													JOINT LeftHandIndex4
													{
														OFFSET 1.745464 0.000004 0.157492
														CHANNELS 3 Zrotation Yrotation Xrotation
														End Site
														{
															OFFSET 0.000000 0.000000 0.000000
														}
													}
												}
											}
										}
										JOINT LeftHandThumb1
										{
											OFFSET 0.167555 -0.749995 0.924978
											CHANNELS 3 Zrotation Yrotation Xrotation
											JOINT LeftHandThumb2
											{
												OFFSET 5.551438 0.857130 2.302691
												CHANNELS 3 Zrotation Yrotation Xrotation
												JOINT LeftHandThumb3
												{
													OFFSET 3.625636 0.559787 1.503877
													CHANNELS 3 Zrotation Yrotation Xrotation
													JOINT LeftHandThumb4
													{
														OFFSET 2.195227 0.338952 0.910529
														CHANNELS 3 Zrotation Yrotation Xrotation
														End Site
														{
															OFFSET 0.000000 0.000000 0.000000
														}
													}
												}
											}
										}
									}
								}
							}
						}
					}
				}
			}
		}
	}
	JOINT RightUpLeg
	{
		OFFSET -8.786534 0.000045 0.000023
		CHANNELS 3 Zrotation Yrotation Xrotation
		JOINT RightLeg
		{
			OFFSET -0.000053 -42.170417 -0.000012
			CHANNELS 3 Zrotation Yrotation Xrotation
			JOINT RightFoot
			{
				OFFSET -0.000014 -45.949138 -0.000047
				CHANNELS 3 Zrotation Yrotation Xrotation
				JOINT RightForeFoot
				{
					OFFSET -0.000045 -4.685844 -0.000001
					CHANNELS 3 Zrotation Yrotation Xrotation
					JOINT RightToeBase
					{
						OFFSET 0.000011 0.000018 18.351065
						CHANNELS 3 Zrotation Yrotation Xrotation
						JOINT RightToeBaseEnd
						{
							OFFSET 0.000078 -0.000023 6.416872
							CHANNELS 3 Zrotation Yrotation Xrotation
							End Site
							{
								OFFSET 0.000000 0.000000 0.000000
							}
						}
					}
				}
			}
		}
	}
	JOINT LeftUpLeg
	{
		OFFSET 8.786535 0.000027 -0.000040
		CHANNELS 3 Zrotation Yrotation Xrotation
		JOINT LeftLeg
		{
			OFFSET -0.000002 -42.170442 0.000041
			CHANNELS 3 Zrotation Yrotation Xrotation
			JOINT LeftFoot
			{
				OFFSET 0.000012 -45.949105 -0.000003
				CHANNELS 3 Zrotation Yrotation Xrotation
				JOINT LeftForeFoot
				{
					OFFSET 0.000004 -4.685768 0.000010
					CHANNELS 3 Zrotation Yrotation Xrotation
					JOINT LeftToeBase
					{
						OFFSET 0.000017 -0.000021 18.351091
						CHANNELS 3 Zrotation Yrotation Xrotation
						JOINT LeftToeBaseEnd
						{
							OFFSET 0.000044 0.000042 7.522012
							CHANNELS 3 Zrotation Yrotation Xrotation
							End Site
							{
								OFFSET 0.000000 0.000000 0.000000
							}
						}
					}
				}
			}
		}
	}
}
MOTION
Frames: 5
Frame Time: 0.066667
1.077585 0.144225 1.746933 -7.382281 15.545086 1.197362 9.179829 -1.286167 0.653476 -0.155837 -0.096447 -2.822814 -0.405567 0.990011 -1.683812 0.753079 0.834575 7.650149 4.301815 -0.070841 9.603317 -9.139585 3.891406 0.395237 -5.612211 1.248866 1.518129 0.003140 -0.002596 -0.000849 5.677710 -12.465342 -1.294832 59.214787 22.631460 3.875521 179.998260 51.282650 -170.938843 -35.389469 3.259739 -0.001687 47.796547 -6.483773 -0.002407 54.785236 0.000161 0.001025 28.713068 -0.001665 0.002984 0.003134 -0.001117 -0.001596 -2.318532 -1.627711 -3.610347 51.858768 -2.838016 -4.053633 59.823952 2.597688 -4.472548 23.468113 0.430823 -2.059460 -0.000870 -0.000158 0.000456 -3.084303 -5.595596 -4.513367 34.895817 7.546650 -7.525631 59.573528 6.409361 -11.116601 41.614571 3.266339 -8.541146 0.000063 -0.000581 -0.000024 0.313983 8.179820 -1.332966 38.184975 -15.457200 3.332821 46.880314 -1.624972 3.777482 33.016045 -0.817011 2.820740 0.000096 -0.000354 0.001310 8.464055 -1.779080 60.543812 12.845996 -4.491148 3.787935 17.701427 -12.134894 3.867663 -0.003902 0.002246 0.000796 -12.329500 8.121124 -1.771209 -57.494030 -3.857915 1.738984 179.997162 -43.588997 -156.671112 27.334444 6.649578 -0.084442 -32.869286 0.834499 0.000398 -35.136078 -0.000228 -0.000298 -22.575922 0.001604 0.000373 0.001329 -0.000554 -0.000444 -0.178338 0.307227 -12.499656 -20.415783 3.614314 -1.798143 -44.699371 -1.500451 -3.637007 -12.528153 -0.127323 -1.122890 -0.000433 0.000493 0.001179 0.774577 0.143994 -8.096543 -11.053993 11.341313 -2.399359 -34.349457 -2.244093 -7.252178 -29.065388 -1.619422 -6.237870 0.000962 0.001370 0.001072 1.199996 -7.291795 -6.077435 -34.162098 8.825153 2.969136 -28.807072 0.633026 2.493650 -15.649008 0.183310 1.398056 0.001058 0.000195 -0.000161 -11.274257 11.551005 53.057312 -1.042559 5.710885 -0.375106 0.000000 0.000000 0.000000 -0.001493 -0.001041 0.000159 5.110332 -4.853264 2.240071 0.001701 0.000949 1.828661 0.000000 0.000000 -0.000000 -0.000000 0.000000 0.000000 -0.000000 0.000000 0.000000 0.000000 0.000000 0.000000 13.939910 -7.860013 1.141168 -0.001826 0.001752 1.970809 -0.000000 -0.000000 -0.000000 0.000000 -0.000000 -0.000000 0.000000 -0.000000 0.000000 0.000000 0.000000 -0.000000 
1.415859 0.135895 1.548299 -7.355568 15.425539 1.304358 9.165801 -1.298923 0.598711 -0.142823 -0.108884 -2.823183 -0.360278 0.815316 -1.668431 0.815989 0.796367 7.643270 4.320642 0.258444 9.378778 -8.835333 4.518578 0.321888 -5.491883 1.263096 1.535345 0.002649 -0.002354 -0.000675 6.155184 -12.389342 -1.375548 59.890640 21.077225 8.344943 179.998444 52.795307 -170.675201 -32.185696 2.535335 -0.002600 48.029278 -6.374630 -0.003029 54.509647 -0.000139 0.000911 28.719179 -0.001731 0.002960 0.002712 -0.001163 -0.001604 -2.272253 -1.655214 -3.790615 52.259636 -2.784888 -4.075737 59.751156 2.590984 -4.469366 23.426596 0.429178 -2.055981 -0.000880 0.000172 0.000942 -3.088733 -5.624599 -4.431068 35.320488 7.778059 -7.610004 59.537876 6.399170 -11.113058 41.436672 3.238648 -8.510878 0.000284 -0.000531 0.000097 0.298612 8.204582 -1.438203 38.258526 -15.441320 3.339070 46.764385 -1.617864 3.770318 32.955700 -0.814595 2.815651 0.000244 -0.000128 0.001431 8.540226 -1.850687 60.698940 13.033609 -4.503819 3.840930 17.684969 -12.126752 3.860892 -0.003703 0.001949 0.000320 -12.233788 7.951544 -1.725633 -58.520756 -4.934560 7.036243 179.997345 -44.435123 -156.576782 26.136953 6.738388 -0.079474 -32.889164 0.834086 0.000106 -35.106186 -0.000129 -0.000286 -22.533918 0.001591 0.000008 0.001114 -0.000303 -0.000436 -0.178786 0.319200 -12.491858 -20.455965 3.589078 -1.801226 -44.681374 -1.499000 -3.636052 -12.455075 -0.125624 -1.116185 -0.000411 0.000292 0.001116 0.773824 0.148297 -8.093077 -11.001929 11.360648 -2.387752 -34.303982 -2.238878 -7.244591 -28.989573 -1.611354 -6.222493 0.000928 0.001300 0.000996 1.199153 -7.299299 -6.086152 -34.208374 8.827926 2.972176 -28.817604 0.631287 2.494876 -15.664732 0.183515 1.399783 0.000973 0.000408 -0.000306 -11.304446 11.510263 53.039455 -1.020231 5.690889 -0.379442 0.000000 0.000000 0.000000 -0.001344 -0.000859 0.000408 4.984036 -4.757778 2.248868 0.000974 0.001238 1.906062 0.000000 0.000000 -0.000000 -0.000000 0.000000 0.000000 -0.000000 0.000000 0.000000 0.000000 0.000000 0.000000 13.871696 -7.807293 1.168153 -0.001503 0.001696 1.835120 -0.000000 -0.000000 -0.000000 0.000000 -0.000000 -0.000000 0.000000 -0.000000 0.000000 0.000000 0.000000 -0.000000 
1.726187 0.128382 1.388767 -7.335328 15.323616 1.402459 9.156513 -1.311600 0.544153 -0.130562 -0.120772 -2.824368 -0.317647 0.649136 -1.655169 0.875503 0.760804 7.633347 4.329414 0.538096 9.149517 -8.561572 5.060940 0.257590 -5.383996 1.274650 1.553848 0.002184 -0.002120 -0.000533 6.601457 -12.328504 -1.453182 60.570408 19.558273 12.351352 179.998611 54.146694 -170.688446 -29.497025 1.869225 -0.002874 48.221107 -6.269648 -0.003540 54.266644 -0.000399 0.000795 28.738388 -0.001791 0.002929 0.002348 -0.001195 -0.001598 -2.227643 -1.677563 -3.968705 52.602077 -2.742310 -4.094476 59.701527 2.586238 -4.467220 23.400059 0.428056 -2.053745 -0.000909 0.000460 0.001393 -3.092594 -5.645691 -4.357272 35.687561 7.972994 -7.682479 59.519562 6.392443 -11.111381 41.276062 3.213769 -8.483456 0.000481 -0.000475 0.000196 0.281707 8.225619 -1.538945 38.307842 -15.417918 3.343364 46.645535 -1.610495 3.763002 32.897175 -0.812217 2.810765 0.000365 0.000072 0.001532 8.611663 -1.912768 60.829163 13.186458 -4.514906 3.884465 17.659788 -12.111982 3.853829 -0.003539 0.001689 -0.000082 -12.157151 7.795565 -1.685098 -59.449886 -5.851927 11.980677 179.997452 -45.197922 -156.605209 25.062738 6.857140 -0.074952 -32.873760 0.840592 -0.000140 -35.039463 -0.000044 -0.000268 -22.476768 0.001567 -0.000313 0.000919 -0.000083 -0.000445 -0.178232 0.329259 -12.480590 -20.473146 3.567684 -1.802430 -44.627857 -1.495502 -3.632792 -12.371977 -0.123767 -1.108615 -0.000400 0.000107 0.001058 0.772126 0.154184 -8.090457 -10.937362 11.372868 -2.373558 -34.249378 -2.232619 -7.235160 -28.904081 -1.602281 -6.205282 0.000902 0.001243 0.000931 1.199337 -7.304067 -6.088994 -34.232933 8.822037 2.973641 -28.798746 0.628581 2.493741 -15.679909 0.183765 1.401400 0.000902 0.000600 -0.000433 -11.327350 11.451492 53.011608 -1.010613 5.671926 -0.379050 0.000000 0.000000 0.000000 -0.001209 -0.000723 0.000640 4.874731 -4.683236 2.254016 0.000327 0.001523 1.977779 0.000000 0.000000 -0.000000 -0.000000 0.000000 0.000000 0.000000 0.000000 0.000000 0.000000 0.000000 0.000000 13.809846 -7.759257 1.194692 -0.001226 0.001638 1.712356 -0.000000 -0.000000 -0.000000 0.000000 -0.000000 -0.000000 0.000000 -0.000000 0.000000 0.000000 0.000000 -0.000000 
2.008530 0.121687 1.268339 -7.321533 15.239302 1.491722 9.151971 -1.324197 0.489800 -0.119055 -0.132111 -2.826371 -0.277672 0.491469 -1.644030 0.931622 0.727887 7.620385 4.328133 0.768135 8.915353 -8.318424 5.518528 0.202594 -5.288558 1.283530 1.573641 0.001745 -0.001896 -0.000423 7.016586 -12.282985 -1.527764 61.255913 18.073296 15.843368 179.998795 55.336033 -170.979965 -27.353664 1.272455 -0.002889 48.372074 -6.168859 -0.003949 54.056240 -0.000619 0.000678 28.770695 -0.001848 0.002891 0.002043 -0.001215 -0.001578 -2.184701 -1.694759 -4.144618 52.885986 -2.710354 -4.109915 59.675060 2.583453 -4.466112 23.388500 0.427457 -2.052754 -0.000959 0.000705 0.001810 -3.095885 -5.658873 -4.291976 35.996948 8.131634 -7.743185 59.518547 6.389176 -11.111567 41.132713 3.191708 -8.458907 0.000655 -0.000413 0.000274 0.263267 8.242930 -1.635194 38.332912 -15.387007 3.345697 46.523781 -1.602866 3.755533 32.840458 -0.809877 2.806084 0.000458 0.000246 0.001611 8.678358 -1.965321 60.934513 13.304531 -4.524431 3.918559 17.625877 -12.090578 3.846473 -0.003408 0.001467 -0.000411 -12.099565 7.653203 -1.649604 -60.279140 -6.608454 16.459652 179.997513 -45.876980 -156.758118 24.113279 7.006619 -0.070911 -32.823063 0.854017 -0.000342 -34.935902 0.000026 -0.000244 -22.404467 0.001531 -0.000589 0.000744 0.000105 -0.000471 -0.176677 0.337405 -12.465849 -20.467329 3.550136 -1.801757 -44.538803 -1.489953 -3.627219 -12.278860 -0.121752 -1.100179 -0.000401 -0.000064 0.001005 0.769482 0.161657 -8.088681 -10.860294 11.377966 -2.356774 -34.185650 -2.225317 -7.223885 -28.808907 -1.592202 -6.186235 0.000883 0.001199 0.000875 1.200547 -7.306094 -6.085962 -34.235764 8.807485 2.973536 -28.750515 0.624906 2.490247 -15.694546 0.184057 1.402907 0.000845 0.000769 -0.000540 -11.342970 11.374697 52.973797 -1.013701 5.653997 -0.373928 0.000000 0.000000 0.000000 -0.001087 -0.000633 0.000855 4.782410 -4.629656 2.255506 -0.000239 0.001806 2.043802 0.000000 0.000000 -0.000000 -0.000000 0.000000 0.000000 0.000000 0.000000 0.000000 0.000000 0.000000 0.000000 13.754353 -7.715910 1.220804 -0.000995 0.001579 1.602515 -0.000000 -0.000000 -0.000000 0.000000 -0.000000 0.000000 0.000000 -0.000000 0.000000 0.000000 0.000000 -0.000000 
2.262854 0.115809 1.187021 -7.314152 15.172588 1.572194 9.152168 -1.336714 0.435652 -0.108302 -0.142900 -2.829190 -0.240353 0.342316 -1.635018 0.984346 0.697616 7.604384 4.316799 0.948591 8.676114 -8.105998 5.891454 0.157092 -5.205578 1.289735 1.594724 0.001333 -0.001681 -0.000345 7.400642 -12.252935 -1.599324 61.948910 16.620890 18.795710 179.998978 56.363380 -171.552124 -25.771717 0.751500 -0.002850 48.482243 -6.072287 -0.004264 53.878441 -0.000799 0.000558 28.816095 -0.001900 0.002847 0.001797 -0.001221 -0.001544 -2.143430 -1.706801 -4.318351 53.111263 -2.689076 -4.122111 59.671711 2.582626 -4.466047 23.391918 0.427382 -2.053009 -0.001029 0.000908 0.002192 -3.098605 -5.664146 -4.235183 36.248558 8.254145 -7.792230 59.534843 6.389372 -11.113620 41.006630 3.172470 -8.437243 0.000805 -0.000346 0.000330 0.243294 8.256519 -1.726950 38.333740 -15.348596 3.346071 46.399117 -1.594976 3.747913 32.785549 -0.807576 2.801606 0.000523 0.000394 0.001669 8.740314 -2.008348 61.015060 13.387824 -4.532408 3.943227 17.583246 -12.062534 3.838820 -0.003311 0.001283 -0.000666 -12.061001 7.524471 -1.619152 -61.006664 -7.203523 20.401730 179.997513 -46.472065 -157.037064 23.289562 7.187512 -0.067377 -32.737080 0.874361 -0.000499 -34.795509 0.000081 -0.000215 -22.317013 0.001484 -0.000820 0.000590 0.000262 -0.000513 -0.174121 0.343638 -12.447636 -20.438511 3.536431 -1.799206 -44.414219 -1.482348 -3.619323 -12.175723 -0.119579 -1.090876 -0.000413 -0.000219 0.000956 0.765892 0.170714 -8.087749 -10.770723 11.375930 -2.337396 -34.112785 -2.216969 -7.210761 -28.704056 -1.581114 -6.165346 0.000871 0.001168 0.000830 1.202784 -7.305387 -6.077057 -34.216900 8.784280 2.971856 -28.672937 0.620263 2.484390 -15.708642 0.184394 1.404303 0.000804 0.000917 -0.000628 -11.351309 11.279875 52.926052 -1.029495 5.637101 -0.364077 0.000000 0.000000 0.000000 -0.000981 -0.000589 0.001054 4.707069 -4.597054 2.253332 -0.000725 0.002085 2.104117 0.000000 0.000000 -0.000000 -0.000000 0.000000 0.000000 0.000000 0.000000 0.000000 0.000000 0.000000 0.000000 13.705212 -7.677248 1.246503 -0.000811 0.001517 1.505594 -0.000000 -0.000000 -0.000000 0.000000 -0.000000 0.000000 0.000000 -0.000000 0.000000 0.000000 0.000000 -0.000000 
